<?xml version="1.0" encoding="UTF-8" standalone="no"?>
<!-- Created with Inkscape (http://www.inkscape.org/) -->

<svg
   xmlns:dc="http://purl.org/dc/elements/1.1/"
   xmlns:cc="http://creativecommons.org/ns#"
   xmlns:rdf="http://www.w3.org/1999/02/22-rdf-syntax-ns#"
   xmlns:svg="http://www.w3.org/2000/svg"
   xmlns="http://www.w3.org/2000/svg"
   xmlns:xlink="http://www.w3.org/1999/xlink"
   xmlns:sodipodi="http://sodipodi.sourceforge.net/DTD/sodipodi-0.dtd"
   xmlns:inkscape="http://www.inkscape.org/namespaces/inkscape"
   sodipodi:docname="icon.svg"
   viewBox="0 0 90 90"
   height="90"
   width="90"
   xml:space="preserve"
   inkscape:version="0.91pre3 r13670"
   version="1.1"
   id="svg3336"><sodipodi:namedview
     inkscape:current-layer="g3344"
     inkscape:window-maximized="1"
     inkscape:window-y="1072"
     inkscape:window-x="1912"
     inkscape:cy="36.710144"
     inkscape:cx="-22.74838"
     inkscape:zoom="4.7222222"
     showgrid="false"
     id="namedview3338"
     inkscape:window-height="1017"
     inkscape:window-width="1920"
     inkscape:pageshadow="2"
     inkscape:pageopacity="0"
     guidetolerance="10"
     gridtolerance="10"
     objecttolerance="10"
     borderopacity="1"
     bordercolor="#666666"
     pagecolor="#ffffff" /><metadata
     id="metadata3342"><rdf:RDF><cc:Work
         rdf:about=""><dc:format>image/svg+xml</dc:format><dc:type
           rdf:resource="http://purl.org/dc/dcmitype/StillImage" /><dc:title /></cc:Work></rdf:RDF></metadata><defs
     id="defs3340"><linearGradient
       inkscape:collect="always"
       id="linearGradient5268"><stop
         style="stop-color:#000000;stop-opacity:0.5"
         offset="0"
         id="stop5270" /><stop
         id="stop4154"
         offset="0.04778346"
         style="stop-color:#000000;stop-opacity:0.40000001" /><stop
         style="stop-color:#000000;stop-opacity:0.20784314;"
         offset="0.07975709"
         id="stop4156" /><stop
         style="stop-color:#000000;stop-opacity:0"
         offset="1"
         id="stop5272" /></linearGradient><clipPath
       id="clipPath3374"
       clipPathUnits="userSpaceOnUse"><path
         inkscape:connector-curvature="0"
         id="path3376"
         d="M 0,72 72,72 72,0 0,0 0,72 Z" /></clipPath><linearGradient
       inkscape:collect="always"
       xlink:href="#linearGradient5268"
       id="linearGradient5274"
       x1="24.17569"
       y1="28.673233"
       x2="75.869576"
       y2="73.461464"
       gradientUnits="userSpaceOnUse" /><mask
       maskUnits="userSpaceOnUse"
       id="mask5044"><g
         transform="matrix(1.25,0,0,-1.25,0,90)"
         id="g5046"
         style="fill:#3f92d2;fill-opacity:1"><g
           id="g5048"
           clip-path="url(#clipPath3374)"
           style="fill:#3f92d2;fill-opacity:1"><g
             id="g5050"
             transform="translate(66,36)"
             style="fill:#3f92d2;fill-opacity:1"><path
               d="m 0,0 c 0,-16.569 -13.431,-30 -30,-30 -16.569,0 -30,13.431 -30,30 0,16.569 13.431,30 30,30 C -13.431,30 0,16.569 0,0"
               style="fill:#3f92d2;fill-opacity:1;fill-rule:nonzero;stroke:none"
               id="path5052"
               inkscape:connector-curvature="0" /></g></g></g></mask></defs><g
     transform="matrix(1.25,0,0,-1.25,0,90)"
     inkscape:label="ic_action"
     inkscape:groupmode="layer"
     id="g3344"><g
       id="g4158"
       style="fill:#000000;fill-opacity:0.19607843"
       transform="translate(0,-0.4)"><g
         id="g4160"
         clip-path="url(#clipPath3374)"
         style="fill:#000000;fill-opacity:0.19607843"><g
           id="g4162"
           transform="translate(66,36)"
           style="fill:#000000;fill-opacity:0.19607843"><path
             d="m 0,0 c 0,-16.569 -13.431,-30 -30,-30 -16.569,0 -30,13.431 -30,30 0,16.569 13.431,30 30,30 C -13.431,30 0,16.569 0,0"
             style="fill:#000000;fill-opacity:0.19607843;fill-rule:nonzero;stroke:none"
             id="path4164"
             inkscape:connector-curvature="0" /></g></g></g><g
       style="fill:#3f92d2;fill-opacity:1"
       id="g3370"><g
         style="fill:#3f92d2;fill-opacity:1"
         clip-path="url(#clipPath3374)"
         id="g3372"><g
           style="fill:#3f92d2;fill-opacity:1"
           transform="translate(66,36)"
           id="g3378"><path
             inkscape:connector-curvature="0"
             id="path3380"
             style="fill:#3f92d2;fill-opacity:1;fill-rule:nonzero;stroke:none"
             d="m 0,0 c 0,-16.569 -13.431,-30 -30,-30 -16.569,0 -30,13.431 -30,30 0,16.569 13.431,30 30,30 C -13.431,30 0,16.569 0,0" /></g></g></g></g><g
     inkscape:groupmode="layer"
     id="layer3"
     inkscape:label="shadow"><path
       style="font-style:normal;font-variant:normal;font-weight:500;font-stretch:normal;font-size:medium;line-height:125%;font-family:Roboto;-inkscape-font-specification:'Roboto Medium';letter-spacing:-2px;word-spacing:0px;fill:url(#linearGradient5274);fill-opacity:1;stroke:none;stroke-width:1;stroke-linecap:butt;stroke-linejoin:miter;stroke-opacity:1"
       d="M 34.664062 28.408203 C 31.485352 28.408203 28.943359 29.478516 27.039062 31.617188 C 25.134766 33.755859 24.183594 36.663086 24.183594 40.339844 L 24.183594 49.414062 C 24.183594 53.09082 25.141602 56.000001 27.060547 58.138672 C 27.248746 58.346984 27.448122 58.536728 27.648438 58.724609 C 27.649662 58.725975 27.651119 58.72715 27.652344 58.728516 C 27.706028 58.778811 27.755993 58.835936 27.810547 58.884766 C 27.853216 58.92637 27.894265 58.971067 27.9375 59.011719 C 27.940286 59.014831 27.942523 59.018375 27.945312 59.021484 C 28.000237 59.072997 28.051586 59.131664 28.107422 59.181641 C 28.148787 59.221951 28.188573 59.265272 28.230469 59.304688 C 28.233251 59.307797 28.235495 59.311347 28.238281 59.314453 C 28.293861 59.366609 28.345831 59.42598 28.402344 59.476562 C 28.441747 59.514941 28.479646 59.556185 28.519531 59.59375 C 28.522317 59.596863 28.524554 59.600406 28.527344 59.603516 C 28.584231 59.656959 28.637446 59.717738 28.695312 59.769531 C 28.733507 59.806718 28.769947 59.846388 28.808594 59.882812 C 28.81138 59.885925 28.813616 59.889469 28.816406 59.892578 C 28.874096 59.946812 28.927632 60.00801 28.986328 60.060547 C 29.023112 60.096353 29.0585 60.134823 29.095703 60.169922 C 29.098489 60.173035 29.100726 60.176578 29.103516 60.179688 C 29.162364 60.235066 29.217447 60.297952 29.277344 60.351562 C 29.312821 60.386078 29.346946 60.423174 29.382812 60.457031 C 29.385595 60.46014 29.387838 60.463691 29.390625 60.466797 C 29.450126 60.522821 29.505833 60.586408 29.566406 60.640625 C 29.59992 60.673211 29.632154 60.708235 29.666016 60.740234 C 29.668802 60.743347 29.671038 60.746891 29.673828 60.75 C 29.734635 60.807318 29.791589 60.872306 29.853516 60.927734 C 29.885803 60.959118 29.916608 60.992598 29.949219 61.023438 C 29.952005 61.02655 29.954241 61.030094 29.957031 61.033203 C 30.018647 61.091325 30.075905 61.15671 30.138672 61.212891 C 30.169563 61.242911 30.199282 61.275165 30.230469 61.304688 C 30.233255 61.3078 30.235491 61.311344 30.238281 61.314453 C 30.301043 61.373714 30.359871 61.440801 30.423828 61.498047 C 30.453411 61.526779 30.481865 61.557662 30.511719 61.585938 C 30.514501 61.589047 30.516744 61.592597 30.519531 61.595703 C 30.582945 61.655613 30.642397 61.723398 30.707031 61.78125 C 30.734647 61.808057 30.761211 61.836872 30.789062 61.863281 C 30.791849 61.866394 30.794085 61.869937 30.796875 61.873047 C 30.86159 61.934255 30.922294 62.003437 30.988281 62.0625 C 31.014654 62.088092 31.039818 62.115396 31.066406 62.140625 C 31.069192 62.143738 31.071429 62.147281 31.074219 62.150391 C 31.139752 62.212416 31.200739 62.281972 31.267578 62.341797 C 31.292569 62.366043 31.316613 62.392096 31.341797 62.416016 C 31.344583 62.419128 31.346819 62.422672 31.349609 62.425781 C 31.416276 62.488941 31.478857 62.560213 31.546875 62.621094 C 31.569961 62.643471 31.591984 62.667354 31.615234 62.689453 C 31.61802 62.692566 31.620257 62.696109 31.623047 62.699219 C 31.690535 62.763203 31.753391 62.834837 31.822266 62.896484 C 31.844631 62.91817 31.866152 62.941466 31.888672 62.962891 C 31.891455 62.966 31.893698 62.96955 31.896484 62.972656 C 31.965099 63.037771 32.029561 63.11113 32.099609 63.173828 C 32.120009 63.193586 32.139628 63.214833 32.160156 63.234375 C 32.162939 63.237484 32.165182 63.241035 32.167969 63.244141 C 32.237232 63.309908 32.302322 63.383962 32.373047 63.447266 C 32.392183 63.465793 32.410438 63.485569 32.429688 63.503906 C 32.43247 63.507015 32.434713 63.510566 32.4375 63.513672 C 32.507591 63.580273 32.572943 63.654674 32.644531 63.71875 C 32.662348 63.736 32.679351 63.7544 32.697266 63.771484 C 32.700048 63.774593 32.702291 63.778144 32.705078 63.78125 C 32.776469 63.849162 32.84307 63.924943 32.916016 63.990234 C 32.929216 64.003008 32.941824 64.016614 32.955078 64.029297 C 32.960634 64.03552 32.965131 64.042618 32.970703 64.048828 C 33.055253 64.142414 33.149332 64.221084 33.236328 64.310547 L 33.236328 64.3125 C 33.320432 64.398965 33.405799 64.483795 33.492188 64.566406 C 33.494973 64.569519 33.49721 64.573062 33.5 64.576172 C 33.57454 64.647274 33.644464 64.726684 33.720703 64.794922 C 33.731899 64.805742 33.742671 64.81737 33.753906 64.828125 C 33.756692 64.831238 33.758929 64.834781 33.761719 64.837891 C 33.837457 64.91021 33.908835 64.991186 33.986328 65.060547 C 33.996209 65.07009 34.005714 65.080351 34.015625 65.089844 C 34.018408 65.092953 34.020651 65.096504 34.023438 65.099609 C 34.099822 65.172587 34.17183 65.254252 34.25 65.324219 C 34.255271 65.329307 34.260346 65.33477 34.265625 65.339844 C 34.271181 65.346067 34.275678 65.353165 34.28125 65.359375 C 34.440328 65.535453 34.611562 65.692034 34.779297 65.853516 C 34.784861 65.859747 34.789342 65.866828 34.794922 65.873047 C 34.952121 66.047045 35.12341 66.203537 35.289062 66.363281 C 35.294017 66.368828 35.297767 66.375323 35.302734 66.380859 C 35.380707 66.467166 35.466822 66.540248 35.546875 66.623047 C 35.549657 66.626155 35.551901 66.629708 35.554688 66.632812 C 35.713765 66.808892 35.884999 66.965471 36.052734 67.126953 C 36.053685 67.128013 36.053736 67.1298 36.054688 67.130859 C 36.132303 67.20552 36.205687 67.287838 36.285156 67.359375 C 36.29072 67.365607 36.295201 67.372687 36.300781 67.378906 C 36.452343 67.546666 36.61597 67.6951 36.775391 67.849609 C 36.780946 67.855832 36.785444 67.862931 36.791016 67.869141 C 36.943204 68.037594 37.107466 68.186704 37.267578 68.341797 C 37.270364 68.34491 37.272601 68.348454 37.275391 68.351562 C 37.353542 68.427075 37.427777 68.509697 37.507812 68.582031 C 37.510599 68.585144 37.512835 68.588687 37.515625 68.591797 C 37.524075 68.599414 37.532545 68.607652 37.541016 68.615234 C 37.610513 68.68196 37.675113 68.756088 37.746094 68.820312 C 37.74888 68.823425 37.751116 68.826969 37.753906 68.830078 C 37.763717 68.838933 37.773364 68.848615 37.783203 68.857422 C 37.847903 68.91953 37.908624 68.988887 37.974609 69.048828 C 37.980173 69.05506 37.984655 69.062141 37.990234 69.068359 C 38.138665 69.232653 38.29911 69.377711 38.455078 69.529297 C 38.45725 69.531723 38.458762 69.534686 38.460938 69.537109 C 38.536343 69.610254 38.608382 69.689588 38.685547 69.759766 C 38.68833 69.762875 38.690573 69.766425 38.693359 69.769531 C 38.709211 69.78391 38.724309 69.800199 38.740234 69.814453 C 38.799852 69.871565 38.855308 69.93496 38.916016 69.990234 C 38.918802 69.993347 38.921038 69.996891 38.923828 70 C 38.941044 70.015635 38.957306 70.03334 38.974609 70.048828 C 39.02959 70.101498 39.080811 70.159829 39.136719 70.210938 C 39.142275 70.21716 39.146772 70.224259 39.152344 70.230469 C 39.295764 70.389217 39.451105 70.528898 39.601562 70.675781 C 39.603738 70.67821 39.605245 70.681167 39.607422 70.683594 C 39.680075 70.754383 39.749927 70.83041 39.824219 70.898438 C 39.827005 70.90155 39.829241 70.905094 39.832031 70.908203 C 39.85592 70.930021 39.878286 70.95503 39.902344 70.976562 C 39.951929 71.023977 39.99849 71.076903 40.048828 71.123047 C 40.051611 71.126156 40.053854 71.129708 40.056641 71.132812 C 40.081832 71.155846 40.105479 71.182362 40.130859 71.205078 C 40.175165 71.247419 40.216813 71.294609 40.261719 71.335938 C 40.267275 71.34216 40.271772 71.349259 40.277344 71.355469 C 40.413875 71.506591 40.562169 71.638926 40.705078 71.779297 C 40.709423 71.784158 40.712442 71.790069 40.716797 71.794922 C 40.85145 71.943965 40.997816 72.074306 41.138672 72.212891 C 41.143017 72.217752 41.146036 72.223662 41.150391 72.228516 C 41.217091 72.302344 41.291153 72.364285 41.359375 72.435547 C 41.361547 72.437972 41.36306 72.440936 41.365234 72.443359 C 41.431308 72.516495 41.504698 72.577821 41.572266 72.648438 C 41.57444 72.650865 41.575948 72.653823 41.578125 72.65625 C 41.709332 72.801479 41.851185 72.929154 41.988281 73.064453 C 41.992288 73.068935 41.995985 73.07365 42 73.078125 C 42.129328 73.221274 42.269247 73.346967 42.404297 73.480469 C 42.408298 73.484944 42.412006 73.489672 42.416016 73.494141 C 42.54597 73.637983 42.686534 73.764335 42.822266 73.898438 C 42.82349 73.899804 42.824947 73.900978 42.826172 73.902344 C 42.891285 73.966604 42.955042 74.033683 43.021484 74.095703 C 43.02427 74.098816 43.026507 74.102359 43.029297 74.105469 C 43.075747 74.148718 43.118917 74.198078 43.166016 74.240234 C 43.185284 74.258538 43.203274 74.278762 43.222656 74.296875 C 43.225442 74.299988 43.227679 74.303531 43.230469 74.306641 C 43.278298 74.351226 43.322576 74.401887 43.371094 74.445312 C 43.382139 74.456426 43.393213 74.467468 43.404297 74.478516 C 43.410282 74.484146 43.415879 74.490481 43.421875 74.496094 C 43.424661 74.499206 43.426898 74.50275 43.429688 74.505859 C 43.480722 74.553508 43.528259 74.60797 43.580078 74.654297 C 43.593715 74.66799 43.607398 74.68172 43.621094 74.695312 C 43.623876 74.698422 43.62612 74.701972 43.628906 74.705078 C 43.693205 74.768737 43.756669 74.835015 43.822266 74.896484 C 43.823827 74.898227 43.824609 74.900602 43.826172 74.902344 C 43.878476 74.951288 43.92734 75.007133 43.980469 75.054688 C 43.991742 75.065376 44.00236 75.077266 44.013672 75.087891 C 44.016455 75.091 44.018698 75.09455 44.021484 75.097656 C 44.075099 75.147883 44.125205 75.205141 44.179688 75.253906 C 44.188997 75.26273 44.197695 75.272471 44.207031 75.28125 C 44.209814 75.284359 44.212057 75.28791 44.214844 75.291016 C 44.26991 75.342667 44.320971 75.401065 44.376953 75.451172 C 44.384268 75.458105 44.391105 75.465751 44.398438 75.472656 C 44.401223 75.475769 44.40346 75.479312 44.40625 75.482422 C 44.463284 75.536009 44.516201 75.596508 44.574219 75.648438 C 44.57954 75.653478 44.584514 75.659037 44.589844 75.664062 C 44.59263 75.667175 44.594866 75.670719 44.597656 75.673828 C 44.656001 75.728709 44.710157 75.790606 44.769531 75.84375 C 44.772857 75.846899 44.775967 75.850372 44.779297 75.853516 C 44.78208 75.856625 44.784323 75.860175 44.787109 75.863281 C 44.846763 75.919457 44.902159 75.982751 44.962891 76.037109 C 44.964218 76.038366 44.965469 76.03976 44.966797 76.041016 C 44.969583 76.044128 44.971819 76.047672 44.974609 76.050781 C 45.035404 76.10812 45.094335 76.17502 45.15625 76.230469 C 45.158422 76.232894 45.159935 76.235857 45.162109 76.238281 C 45.224379 76.297052 45.282257 76.363134 45.345703 76.419922 L 45.345703 76.421875 C 45.405273 76.478193 45.460837 76.541202 45.521484 76.595703 C 45.52427 76.598816 45.526507 76.602359 45.529297 76.605469 C 45.530994 76.60699 45.533458 76.607855 45.535156 76.609375 C 45.592244 76.663354 45.645047 76.725034 45.703125 76.777344 C 45.705911 76.780456 45.708148 76.784 45.710938 76.787109 C 45.715331 76.791056 45.72021 76.794891 45.724609 76.798828 C 45.779204 76.850399 45.829267 76.908939 45.884766 76.958984 C 45.887548 76.962093 45.889791 76.965644 45.892578 76.96875 C 45.898336 76.973929 45.904388 76.979212 45.910156 76.984375 C 45.961955 77.033298 46.009887 77.089169 46.0625 77.136719 C 46.065286 77.139831 46.067524 77.143375 46.070312 77.146484 C 46.078753 77.154092 46.087243 77.16235 46.095703 77.169922 C 46.144855 77.216319 46.190349 77.269292 46.240234 77.314453 C 46.24302 77.317566 46.245257 77.321109 46.248047 77.324219 C 46.258505 77.333662 46.268807 77.344126 46.279297 77.353516 C 46.325801 77.397389 46.368855 77.447467 46.416016 77.490234 C 46.418802 77.493347 46.421038 77.496891 46.423828 77.5 C 46.436303 77.511284 46.448416 77.523949 46.460938 77.535156 C 46.505572 77.577247 46.546558 77.624943 46.591797 77.666016 C 46.59458 77.669125 46.596823 77.672675 46.599609 77.675781 C 46.613463 77.688327 46.626714 77.702393 46.640625 77.714844 C 46.682487 77.754315 46.721278 77.799315 46.763672 77.837891 C 46.766458 77.841003 46.768694 77.844547 46.771484 77.847656 C 46.787986 77.862633 46.803732 77.87969 46.820312 77.894531 C 46.859525 77.931484 46.895869 77.973599 46.935547 78.009766 C 46.938333 78.012878 46.940569 78.016422 46.943359 78.019531 C 46.96187 78.036361 46.979435 78.055607 46.998047 78.072266 C 47.034608 78.1067 47.068503 78.145934 47.105469 78.179688 C 47.108255 78.1828 47.110491 78.186344 47.113281 78.189453 C 47.133799 78.208139 47.153186 78.229571 47.173828 78.248047 C 47.204005 78.279379 47.235152 78.309012 47.265625 78.339844 C 47.271181 78.346067 47.275678 78.353165 47.28125 78.359375 C 47.439075 78.534067 47.609044 78.689285 47.775391 78.849609 C 47.776952 78.851352 47.777734 78.853727 47.779297 78.855469 C 47.831142 78.905367 47.880921 78.959308 47.933594 79.007812 C 47.93638 79.010925 47.938616 79.014469 47.941406 79.017578 C 47.971963 79.045645 48.000416 79.07787 48.03125 79.105469 C 48.04993 79.123015 48.067152 79.142788 48.085938 79.160156 C 48.091501 79.166388 48.095983 79.173468 48.101562 79.179688 C 48.202081 79.290948 48.31204 79.386753 48.416016 79.492188 C 48.41724 79.493554 48.418697 79.494728 48.419922 79.496094 C 48.455244 79.531872 48.491623 79.566457 48.527344 79.601562 C 48.53869 79.612208 48.549162 79.624186 48.560547 79.634766 C 48.566103 79.640989 48.5706 79.648087 48.576172 79.654297 C 48.6745 79.763134 48.783129 79.855724 48.884766 79.958984 C 48.885716 79.960044 48.885768 79.961831 48.886719 79.962891 C 48.927839 80.004634 48.970057 80.045106 49.011719 80.085938 C 49.015049 80.089057 49.018151 80.092589 49.021484 80.095703 C 49.027048 80.101935 49.03153 80.109016 49.037109 80.115234 C 49.132618 80.22095 49.237308 80.311655 49.335938 80.412109 L 49.337891 80.414062 C 49.384144 80.461146 49.43353 80.508761 49.480469 80.554688 C 49.482641 80.557113 49.484153 80.560076 49.486328 80.5625 C 49.533451 80.606526 49.577208 80.65632 49.625 80.699219 C 49.627783 80.702328 49.630026 80.705879 49.632812 80.708984 L 49.634766 80.708984 C 49.680803 80.752055 49.722855 80.801757 49.769531 80.84375 C 49.772314 80.846859 49.774557 80.85041 49.777344 80.853516 C 49.780391 80.85625 49.78406 80.858599 49.787109 80.861328 C 49.829875 80.901317 49.868793 80.947268 49.912109 80.986328 C 49.914895 80.989441 49.917132 80.992984 49.919922 80.996094 C 49.92568 81.001273 49.931732 81.006556 49.9375 81.011719 C 49.977489 81.049108 50.014216 81.09233 50.054688 81.128906 C 50.05747 81.132015 50.059713 81.135566 50.0625 81.138672 C 50.070939 81.146279 50.079431 81.154537 50.087891 81.162109 C 50.124657 81.19645 50.158139 81.235877 50.195312 81.269531 C 50.198096 81.27264 50.200338 81.276191 50.203125 81.279297 C 50.21361 81.288765 50.223857 81.29918 50.234375 81.308594 C 50.268467 81.340437 50.299542 81.37695 50.333984 81.408203 C 50.336767 81.411312 50.33901 81.414863 50.341797 81.417969 C 50.354978 81.429898 50.367627 81.443235 50.380859 81.455078 C 50.411615 81.483789 50.439662 81.516691 50.470703 81.544922 C 50.473489 81.548035 50.475726 81.551578 50.478516 81.554688 C 50.494388 81.569085 50.509444 81.585336 50.525391 81.599609 C 50.5534 81.625753 50.579176 81.655895 50.607422 81.681641 C 50.610205 81.68475 50.612448 81.6883 50.615234 81.691406 C 50.633745 81.708236 50.65131 81.727482 50.669922 81.744141 C 50.691326 81.764099 50.71088 81.786915 50.732422 81.806641 C 50.737986 81.812872 50.742467 81.819953 50.748047 81.826172 C 50.789069 81.871579 50.835355 81.908689 50.876953 81.953125 C 50.878517 81.95487 50.879295 81.95724 50.880859 81.958984 C 51.004551 82.095895 51.138653 82.215665 51.267578 82.34375 C 51.268803 82.345116 51.270259 82.346291 51.271484 82.347656 C 51.301853 82.377793 51.332623 82.407852 51.363281 82.4375 C 51.372639 82.44621 51.381241 82.456178 51.390625 82.464844 C 51.393411 82.467956 51.395648 82.4715 51.398438 82.474609 C 51.432318 82.505818 51.463824 82.541634 51.498047 82.572266 C 51.50139 82.575375 51.504467 82.578927 51.507812 82.582031 C 51.513368 82.588254 51.517865 82.595353 51.523438 82.601562 C 51.640866 82.731542 51.768479 82.844773 51.890625 82.966797 L 51.892578 82.96875 C 51.929717 83.005831 51.966331 83.043732 52.003906 83.080078 C 52.006351 83.082809 52.009271 83.085162 52.011719 83.087891 C 52.01469 83.090758 52.01851 83.09284 52.021484 83.095703 C 52.055557 83.127346 52.086673 83.164257 52.121094 83.195312 C 52.12388 83.198425 52.126116 83.201969 52.128906 83.205078 C 52.135324 83.210853 52.142007 83.216901 52.148438 83.222656 C 52.179215 83.251224 52.207219 83.284411 52.238281 83.3125 C 52.241064 83.315609 52.243307 83.31916 52.246094 83.322266 C 52.255218 83.330495 52.264288 83.339468 52.273438 83.347656 C 52.300911 83.373144 52.325816 83.402628 52.353516 83.427734 C 52.356298 83.430843 52.358541 83.434394 52.361328 83.4375 C 52.373162 83.448198 52.384609 83.460074 52.396484 83.470703 C 52.420608 83.493082 52.442499 83.51893 52.466797 83.541016 C 52.469583 83.544128 52.471819 83.547672 52.474609 83.550781 C 52.489809 83.564562 52.504264 83.580084 52.519531 83.59375 C 52.536957 83.609907 52.552796 83.628528 52.570312 83.644531 C 52.575868 83.650754 52.580365 83.657853 52.585938 83.664062 C 52.689588 83.77879 52.802831 83.877798 52.910156 83.986328 C 52.911381 83.987694 52.912837 83.988869 52.914062 83.990234 C 52.94034 84.016776 52.967644 84.042189 52.994141 84.068359 C 52.997494 84.071463 53.00055 84.075027 53.003906 84.078125 C 53.00947 84.084357 53.013951 84.091437 53.019531 84.097656 C 53.084352 84.169404 53.156398 84.229504 53.222656 84.298828 C 53.22449 84.300876 53.22668 84.30264 53.228516 84.304688 C 53.258944 84.336472 53.291534 84.36521 53.322266 84.396484 C 53.325052 84.399597 53.327288 84.403141 53.330078 84.40625 C 53.360837 84.437475 53.392766 84.467333 53.423828 84.498047 C 53.426003 84.500476 53.427509 84.503433 53.429688 84.505859 C 53.435251 84.511351 53.441691 84.516009 53.447266 84.521484 C 53.47277 84.545038 53.495786 84.572477 53.521484 84.595703 C 53.524267 84.598812 53.52651 84.602363 53.529297 84.605469 C 53.537758 84.613096 53.546205 84.621314 53.554688 84.628906 C 53.576774 84.649314 53.596908 84.673198 53.619141 84.693359 C 53.621923 84.696468 53.624166 84.700019 53.626953 84.703125 C 53.639428 84.714409 53.651542 84.727074 53.664062 84.738281 C 53.677695 84.752029 53.691387 84.765649 53.705078 84.779297 C 53.708444 84.782367 53.711474 84.785999 53.714844 84.789062 C 53.717626 84.792172 53.71987 84.795722 53.722656 84.798828 C 53.738508 84.813207 53.753606 84.829496 53.769531 84.84375 C 53.782923 84.856109 53.795149 84.870544 53.808594 84.882812 C 53.81138 84.885925 53.813616 84.889469 53.816406 84.892578 C 53.836255 84.910645 53.855034 84.931348 53.875 84.949219 C 53.884402 84.957887 53.892915 84.967939 53.902344 84.976562 C 53.905126 84.979672 53.90737 84.983222 53.910156 84.986328 C 53.932737 85.006929 53.953831 85.030435 53.976562 85.050781 C 53.981866 85.055815 53.986876 85.061387 53.992188 85.066406 C 53.994973 85.069519 53.99721 85.073062 54 85.076172 C 54.029239 85.103734 54.056439 85.134984 54.085938 85.162109 C 54.087162 85.163475 54.088619 85.16465 54.089844 85.166016 C 54.120362 85.194046 54.148891 85.226343 54.179688 85.253906 L 54.179688 85.255859 C 54.183269 85.259441 54.18782 85.262051 54.191406 85.265625 C 54.214276 85.286615 54.234787 85.311304 54.257812 85.332031 C 54.260599 85.335144 54.262835 85.338687 54.265625 85.341797 C 54.269353 85.345144 54.273612 85.348222 54.277344 85.351562 C 54.300186 85.372598 54.320752 85.397195 54.34375 85.417969 C 54.346533 85.421078 54.348776 85.424629 54.351562 85.427734 C 54.359348 85.434749 54.367196 85.442234 54.375 85.449219 C 54.393143 85.465918 54.409493 85.48542 54.427734 85.501953 C 54.430517 85.505062 54.43276 85.508613 54.435547 85.511719 C 54.447381 85.522417 54.458828 85.534293 54.470703 85.544922 C 54.484016 85.557505 54.496399 85.571492 54.509766 85.583984 C 54.512548 85.587093 54.514791 85.590644 54.517578 85.59375 C 54.540658 85.615265 54.562697 85.638912 54.585938 85.660156 C 54.590276 85.665011 54.593308 85.670935 54.597656 85.675781 C 54.693791 85.78219 54.79914 85.873531 54.898438 85.974609 C 54.901223 85.977722 54.90346 85.981266 54.90625 85.984375 C 54.996122 86.083852 55.094864 86.168854 55.1875 86.263672 C 55.189063 86.265417 55.189842 86.267787 55.191406 86.269531 C 55.208522 86.287026 55.226931 86.302977 55.244141 86.320312 C 55.269964 86.348489 55.29817 86.372595 55.324219 86.400391 L 55.326172 86.402344 C 55.346507 86.424031 55.368199 86.443389 55.388672 86.464844 L 55.390625 86.466797 C 55.410143 86.487241 55.431529 86.505157 55.451172 86.525391 C 55.452124 86.526452 55.452173 86.528236 55.453125 86.529297 C 55.47245 86.549187 55.492273 86.568205 55.511719 86.587891 C 55.512942 86.589255 55.514401 86.590433 55.515625 86.591797 C 55.533461 86.609833 55.552375 86.626666 55.570312 86.644531 C 55.572485 86.646957 55.573997 86.64992 55.576172 86.652344 C 55.577808 86.65397 55.580394 86.654625 55.582031 86.65625 C 55.597501 86.670399 55.611413 86.687143 55.626953 86.701172 C 55.629736 86.704281 55.631979 86.707832 55.634766 86.710938 C 55.641866 86.717331 55.649134 86.7241 55.65625 86.730469 C 55.665654 86.73907 55.674164 86.749257 55.683594 86.757812 C 55.68638 86.760925 55.688616 86.764469 55.691406 86.767578 C 55.704553 86.779477 55.717271 86.792874 55.730469 86.804688 C 55.736032 86.810918 55.740514 86.818 55.746094 86.824219 C 55.794005 86.877251 55.847787 86.920948 55.896484 86.972656 C 55.89927 86.975769 55.901507 86.979312 55.904297 86.982422 C 55.951764 87.032701 56.002569 87.07793 56.050781 87.126953 C 56.091503 87.17024 56.13451 87.209593 56.175781 87.251953 C 56.177615 87.254001 56.179805 87.255766 56.181641 87.257812 C 56.207131 87.283932 56.234066 87.308218 56.259766 87.333984 C 56.260717 87.335046 56.260767 87.336829 56.261719 87.337891 C 56.270178 87.346364 56.278628 87.354846 56.287109 87.363281 C 56.29111 87.367756 56.294819 87.372485 56.298828 87.376953 C 56.332023 87.413696 56.370725 87.442408 56.404297 87.478516 L 56.404297 87.480469 C 56.414117 87.491027 56.425695 87.499262 56.435547 87.509766 L 56.435547 87.511719 C 56.4454 87.522221 56.456912 87.530568 56.466797 87.541016 L 56.466797 87.542969 C 56.475725 87.552403 56.485186 87.560924 56.494141 87.570312 L 56.496094 87.572266 C 56.504411 87.580982 56.513145 87.588978 56.521484 87.597656 L 56.523438 87.599609 C 56.531137 87.607617 56.539156 87.615072 56.546875 87.623047 L 56.548828 87.625 C 56.556549 87.632972 56.564526 87.640497 56.572266 87.648438 L 56.574219 87.650391 C 56.578089 87.654359 56.582062 87.658149 56.585938 87.662109 C 56.589334 87.665906 56.592301 87.670036 56.595703 87.673828 C 56.602281 87.681108 56.610594 87.686104 56.617188 87.693359 L 56.617188 87.695312 C 56.648891 87.730195 56.686705 87.760616 56.71875 87.794922 C 56.721532 87.79803 56.723777 87.801582 56.726562 87.804688 C 56.729423 87.80774 56.733465 87.809451 56.736328 87.8125 C 56.739114 87.815613 56.741351 87.819156 56.744141 87.822266 C 56.74637 87.824634 56.749722 87.825759 56.751953 87.828125 C 56.753787 87.830173 56.755977 87.831938 56.757812 87.833984 C 56.758764 87.835046 56.758813 87.836829 56.759766 87.837891 C 56.760725 87.838905 56.762713 87.83883 56.763672 87.839844 C 56.812761 87.891712 56.866132 87.941659 56.916016 87.992188 C 56.937749 88.015013 56.960533 88.036029 56.982422 88.058594 C 57.037914 88.116336 57.095848 88.170514 57.152344 88.226562 C 57.163811 88.236926 57.174041 88.249467 57.185547 88.259766 C 57.195695 88.268927 57.204665 88.279952 57.214844 88.289062 C 57.224992 88.298225 57.233962 88.309249 57.244141 88.318359 C 57.253614 88.326907 57.261984 88.3372 57.271484 88.345703 C 57.280933 88.354228 57.289353 88.364566 57.298828 88.373047 C 57.306952 88.380368 57.314123 88.389196 57.322266 88.396484 C 57.330378 88.403796 57.337571 88.412643 57.345703 88.419922 C 57.353141 88.426621 57.359732 88.434734 57.367188 88.441406 C 57.373959 88.447503 57.379933 88.454863 57.386719 88.460938 C 57.393473 88.467017 57.399482 88.474411 57.40625 88.480469 C 57.417073 88.490245 57.426643 88.502001 57.4375 88.511719 C 57.442906 88.516579 57.447711 88.522498 57.453125 88.527344 C 57.457192 88.530996 57.460772 88.535419 57.464844 88.539062 C 57.468905 88.54271 57.472496 88.547142 57.476562 88.550781 C 57.479943 88.553816 57.482944 88.557518 57.486328 88.560547 C 57.489037 88.562977 57.49143 88.565933 57.494141 88.568359 C 57.496175 88.570183 57.497964 88.572397 57.5 88.574219 C 57.502034 88.576043 57.503824 88.578256 57.505859 88.580078 C 57.507214 88.581292 57.50841 88.582771 57.509766 88.583984 C 57.509766 88.583984 57.511719 88.585938 57.511719 88.585938 C 57.66407 88.722064 57.827203 88.840138 57.986328 88.964844 C 58.095543 89.050293 58.200098 89.144534 58.3125 89.224609 L 58.314453 89.226562 C 58.315933 89.22762 58.316879 89.229413 58.318359 89.230469 C 58.318359 89.230469 58.320312 89.232422 58.320312 89.232422 C 58.598816 89.431026 58.887464 89.613706 59.185547 89.779297 C 59.185547 89.779297 59.1875 89.78125 59.1875 89.78125 C 59.485711 89.946684 59.793533 90.094149 60.111328 90.226562 C 60.111328 90.226562 60.113281 90.228516 60.113281 90.228516 C 61.387695 90.759521 62.820801 91.025391 64.410156 91.025391 C 67.588867 91.025391 70.122071 89.963868 72.011719 87.839844 C 72.21419 87.614011 72.401068 87.374401 72.582031 87.130859 L 72.632812 87.130859 L 72.568359 87.230469 L 72.730469 87.230469 L 72.666016 87.330078 L 72.826172 87.330078 L 72.763672 87.427734 L 72.919922 87.427734 L 72.859375 87.523438 L 73.013672 87.523438 L 72.953125 87.617188 L 73.107422 87.617188 L 73.046875 87.710938 L 73.195312 87.710938 L 73.138672 87.800781 L 73.285156 87.800781 L 73.228516 87.890625 L 73.373047 87.890625 L 73.316406 87.980469 L 73.457031 87.980469 L 73.402344 88.066406 L 73.542969 88.066406 L 73.488281 88.152344 L 73.626953 88.152344 L 73.572266 88.236328 L 73.707031 88.236328 L 73.654297 88.318359 L 73.789062 88.318359 L 73.736328 88.400391 L 73.865234 88.400391 L 73.814453 88.478516 L 73.943359 88.478516 L 73.892578 88.556641 L 74.019531 88.556641 L 73.970703 88.632812 L 74.09375 88.632812 L 74.044922 88.708984 L 74.166016 88.708984 L 74.119141 88.78125 L 74.236328 88.78125 L 74.189453 88.853516 L 74.306641 88.853516 L 74.261719 88.923828 L 74.375 88.923828 L 74.330078 88.994141 L 74.441406 88.994141 L 74.398438 89.060547 L 74.505859 89.060547 L 74.462891 89.126953 L 74.568359 89.126953 L 74.527344 89.191406 L 74.630859 89.191406 L 74.591797 89.253906 L 74.691406 89.253906 L 74.652344 89.316406 L 74.751953 89.316406 L 74.712891 89.376953 L 74.808594 89.376953 L 74.771484 89.435547 L 74.865234 89.435547 L 74.828125 89.492188 L 74.921875 89.492188 L 74.884766 89.548828 L 74.972656 89.548828 L 74.939453 89.601562 L 75.025391 89.601562 L 74.992188 89.654297 L 75.076172 89.654297 L 75.042969 89.707031 L 75.123047 89.707031 L 75.091797 89.755859 L 75.171875 89.755859 L 75.140625 89.804688 L 75.216797 89.804688 L 75.1875 89.851562 L 75.261719 89.851562 L 75.232422 89.896484 L 75.304688 89.896484 L 75.277344 89.939453 L 75.345703 89.939453 L 75.318359 89.982422 L 75.384766 89.982422 L 75.359375 90.023438 L 75.423828 90.023438 L 75.398438 90.0625 L 75.462891 90.0625 L 75.4375 90.101562 L 75.496094 90.101562 L 75.472656 90.136719 L 75.53125 90.136719 L 75.507812 90.171875 L 75.5625 90.171875 L 75.541016 90.205078 L 75.59375 90.205078 L 75.574219 90.236328 L 75.623047 90.236328 L 75.603516 90.267578 L 75.652344 90.267578 L 75.632812 90.296875 L 75.677734 90.296875 L 75.660156 90.324219 L 75.703125 90.324219 L 75.6875 90.349609 L 75.726562 90.349609 L 75.710938 90.375 L 75.75 90.375 L 75.734375 90.398438 L 75.769531 90.398438 L 75.755859 90.419922 L 75.787109 90.419922 L 75.775391 90.439453 L 75.806641 90.439453 L 75.794922 90.457031 L 75.822266 90.457031 L 75.810547 90.474609 L 75.835938 90.474609 L 75.826172 90.490234 L 75.849609 90.490234 L 75.841797 90.503906 L 75.861328 90.503906 L 75.853516 90.517578 L 75.873047 90.517578 L 75.865234 90.529297 L 75.880859 90.529297 L 75.875 90.537109 L 75.888672 90.537109 L 75.882812 90.546875 L 75.892578 90.546875 L 75.888672 90.552734 L 75.898438 90.552734 L 75.894531 90.558594 L 75.900391 90.558594 L 75.898438 90.5625 L 75.902344 90.5625 L 75.900391 90.564453 L 82.009766 90.564453 L 85.277344 84.623047 L 85.3125 84.683594 L 85.371094 84.683594 L 85.443359 84.814453 L 85.503906 84.814453 L 85.574219 84.943359 L 85.632812 84.943359 L 85.703125 85.072266 L 85.759766 85.072266 L 85.830078 85.199219 L 85.884766 85.199219 L 85.955078 85.326172 L 86.009766 85.326172 L 86.078125 85.449219 L 86.132812 85.449219 L 86.201172 85.572266 L 86.255859 85.572266 L 86.322266 85.693359 L 86.375 85.693359 L 86.441406 85.8125 L 86.496094 85.8125 L 86.560547 85.929688 L 86.611328 85.929688 L 86.675781 86.046875 L 86.728516 86.046875 L 86.791016 86.162109 L 86.841797 86.162109 L 86.904297 86.275391 L 86.955078 86.275391 L 87.017578 86.388672 L 87.068359 86.388672 L 87.128906 86.498047 L 87.175781 86.498047 L 87.236328 86.607422 L 87.287109 86.607422 L 87.345703 86.714844 L 87.392578 86.714844 L 87.451172 86.822266 L 87.5 86.822266 L 87.556641 86.925781 L 87.601562 86.925781 L 87.658203 87.029297 L 87.703125 87.029297 L 87.759766 87.130859 L 87.806641 87.130859 L 87.861328 87.230469 L 87.904297 87.230469 L 87.958984 87.330078 L 88.003906 87.330078 L 88.056641 87.427734 L 88.099609 87.427734 L 88.152344 87.523438 L 88.195312 87.523438 L 88.246094 87.617188 L 88.289062 87.617188 L 88.339844 87.710938 L 88.382812 87.710938 L 88.431641 87.800781 L 88.472656 87.800781 L 88.521484 87.890625 L 88.560547 87.890625 L 88.609375 87.980469 L 88.648438 87.980469 L 88.695312 88.066406 L 88.734375 88.066406 L 88.78125 88.152344 L 88.818359 88.152344 L 88.865234 88.236328 L 88.902344 88.236328 L 88.947266 88.318359 L 88.984375 88.318359 L 89.029297 88.400391 L 89.064453 88.400391 L 89.107422 88.478516 L 89.142578 88.478516 L 89.185547 88.556641 L 89.222656 88.556641 L 89.263672 88.632812 L 89.296875 88.632812 L 89.337891 88.708984 L 89.373047 88.708984 L 89.412109 88.78125 L 89.443359 88.78125 L 89.482422 88.853516 L 89.515625 88.853516 L 89.554688 88.923828 L 89.583984 88.923828 L 89.623047 88.994141 L 89.654297 88.994141 L 89.691406 89.060547 L 89.71875 89.060547 L 89.755859 89.126953 L 89.785156 89.126953 L 89.820312 89.191406 L 89.849609 89.191406 L 89.884766 89.253906 L 89.910156 89.253906 L 89.945312 89.316406 L 89.972656 89.316406 L 90.005859 89.376953 L 90.033203 89.376953 L 90.064453 89.435547 L 90.089844 89.435547 L 90.121094 89.492188 L 90.146484 89.492188 L 90.177734 89.548828 L 90.203125 89.548828 L 90.232422 89.601562 L 90.255859 89.601562 L 90.285156 89.654297 L 90.306641 89.654297 L 90.335938 89.707031 L 90.357422 89.707031 L 90.384766 89.755859 L 90.40625 89.755859 L 90.433594 89.804688 L 90.455078 89.804688 L 90.480469 89.851562 L 90.5 89.851562 L 90.525391 89.896484 L 90.546875 89.896484 L 90.570312 89.939453 L 90.587891 89.939453 L 90.611328 89.982422 L 90.628906 89.982422 L 90.652344 90.023438 L 90.669922 90.023438 L 90.691406 90.0625 L 90.708984 90.0625 L 90.730469 90.101562 L 90.746094 90.101562 L 90.765625 90.136719 L 90.78125 90.136719 L 90.800781 90.171875 L 90.816406 90.171875 L 90.833984 90.205078 L 90.849609 90.205078 L 90.867188 90.236328 L 90.878906 90.236328 L 90.896484 90.267578 L 90.910156 90.267578 L 90.925781 90.296875 L 90.9375 90.296875 L 90.953125 90.324219 L 90.966797 90.324219 L 90.980469 90.349609 L 90.990234 90.349609 L 91.003906 90.375 L 91.013672 90.375 L 91.027344 90.398438 L 91.037109 90.398438 L 91.048828 90.419922 L 91.058594 90.419922 L 91.068359 90.439453 L 91.078125 90.439453 L 91.087891 90.457031 L 91.09375 90.457031 L 91.103516 90.474609 L 91.111328 90.474609 L 91.119141 90.490234 L 91.126953 90.490234 L 91.134766 90.503906 L 91.138672 90.503906 L 91.146484 90.517578 L 91.152344 90.517578 L 91.158203 90.529297 L 91.164062 90.529297 L 91.167969 90.537109 L 91.169922 90.537109 L 91.175781 90.546875 L 91.177734 90.546875 L 91.181641 90.552734 L 91.183594 90.552734 L 91.1875 90.558594 L 91.189453 90.558594 L 91.191406 90.5625 L 91.193359 90.564453 L 97.257812 90.564453 L 97.255859 90.5625 L 91.714844 81.902344 L 89.568359 78.544922 L 97.039062 66.789062 L 97.033203 66.789062 L 97.035156 66.787109 L 97.03125 66.787109 L 97.033203 66.783203 L 97.025391 66.783203 L 97.027344 66.779297 L 97.013672 66.779297 L 97.019531 66.771484 L 97.005859 66.771484 L 97.011719 66.763672 L 96.996094 66.763672 L 97.001953 66.753906 L 96.984375 66.753906 L 96.992188 66.742188 L 96.970703 66.742188 L 96.978516 66.730469 L 96.957031 66.730469 L 96.964844 66.716797 L 96.939453 66.716797 L 96.949219 66.701172 L 96.919922 66.701172 L 96.931641 66.683594 L 96.902344 66.683594 L 96.914062 66.664062 L 96.880859 66.664062 L 96.892578 66.644531 L 96.857422 66.644531 L 96.871094 66.623047 L 96.833984 66.623047 L 96.849609 66.599609 L 96.808594 66.599609 L 96.824219 66.576172 L 96.78125 66.576172 L 96.798828 66.548828 L 96.753906 66.548828 L 96.771484 66.521484 L 96.724609 66.521484 L 96.742188 66.494141 L 96.691406 66.494141 L 96.710938 66.462891 L 96.660156 66.462891 L 96.679688 66.431641 L 96.625 66.431641 L 96.646484 66.398438 L 96.589844 66.398438 L 96.611328 66.363281 L 96.550781 66.363281 L 96.574219 66.326172 L 96.513672 66.326172 L 96.537109 66.289062 L 96.472656 66.289062 L 96.498047 66.248047 L 96.431641 66.248047 L 96.457031 66.208984 L 96.386719 66.208984 L 96.414062 66.166016 L 96.341797 66.166016 L 96.371094 66.121094 L 96.296875 66.121094 L 96.326172 66.076172 L 96.25 66.076172 L 96.279297 66.029297 L 96.201172 66.029297 L 96.230469 65.982422 L 96.146484 65.982422 L 96.179688 65.931641 L 96.095703 65.931641 L 96.128906 65.880859 L 96.042969 65.880859 L 96.076172 65.828125 L 95.986328 65.828125 L 96.021484 65.773438 L 95.931641 65.773438 L 95.966797 65.71875 L 95.873047 65.71875 L 95.910156 65.660156 L 95.814453 65.660156 L 95.851562 65.601562 L 95.753906 65.601562 L 95.791016 65.542969 L 95.689453 65.542969 L 95.728516 65.480469 L 95.626953 65.480469 L 95.666016 65.417969 L 95.560547 65.417969 L 95.601562 65.353516 L 95.492188 65.353516 L 95.535156 65.287109 L 95.423828 65.287109 L 95.466797 65.21875 L 95.355469 65.21875 L 95.398438 65.150391 L 95.283203 65.150391 L 95.328125 65.080078 L 95.208984 65.080078 L 95.255859 65.007812 L 95.134766 65.007812 L 95.181641 64.933594 L 95.060547 64.933594 L 95.107422 64.859375 L 94.982422 64.859375 L 95.03125 64.783203 L 94.904297 64.783203 L 94.953125 64.705078 L 94.822266 64.705078 L 94.873047 64.625 L 94.742188 64.625 L 94.792969 64.544922 L 94.658203 64.544922 L 94.710938 64.460938 L 94.574219 64.460938 L 94.626953 64.376953 L 94.488281 64.376953 L 94.541016 64.292969 L 94.398438 64.292969 L 94.455078 64.205078 L 94.308594 64.205078 L 94.365234 64.117188 L 94.21875 64.117188 L 94.275391 64.027344 L 94.126953 64.027344 L 94.185547 63.935547 L 94.033203 63.935547 L 94.091797 63.84375 L 93.9375 63.84375 L 93.998047 63.748047 L 93.841797 63.748047 L 93.902344 63.652344 L 93.744141 63.652344 L 93.804688 63.556641 L 93.642578 63.556641 L 93.705078 63.457031 L 93.542969 63.457031 L 93.605469 63.357422 L 93.439453 63.357422 L 93.503906 63.255859 L 93.333984 63.255859 L 93.400391 63.152344 L 93.228516 63.152344 L 93.294922 63.046875 L 93.123047 63.046875 L 93.189453 62.941406 L 93.013672 62.941406 L 93.082031 62.833984 L 92.902344 62.833984 L 92.972656 62.724609 L 92.791016 62.724609 L 92.861328 62.613281 L 92.679688 62.613281 L 92.75 62.501953 L 92.564453 62.501953 L 92.636719 62.386719 L 92.449219 62.386719 L 92.521484 62.273438 L 92.330078 62.273438 L 92.404297 62.15625 L 92.210938 62.15625 L 92.287109 62.037109 L 92.091797 62.037109 L 92.167969 61.917969 L 91.970703 61.917969 L 92.046875 61.796875 L 91.847656 61.796875 L 91.923828 61.675781 L 91.71875 61.675781 L 91.798828 61.550781 L 91.59375 61.550781 L 91.673828 61.425781 L 91.466797 61.425781 L 91.546875 61.298828 L 91.335938 61.298828 L 91.417969 61.169922 L 91.205078 61.169922 L 91.289062 61.039062 L 91.072266 61.039062 L 91.15625 60.908203 L 90.939453 60.908203 L 91.023438 60.775391 L 90.804688 60.775391 L 90.890625 60.640625 L 90.667969 60.640625 L 90.753906 60.505859 L 90.529297 60.505859 L 90.617188 60.367188 L 90.390625 60.367188 L 90.478516 60.228516 L 90.248047 60.228516 L 90.337891 60.087891 L 90.105469 60.087891 L 90.195312 59.947266 L 89.960938 59.947266 L 90.052734 59.802734 L 89.816406 59.802734 L 89.908203 59.658203 L 89.667969 59.658203 L 89.761719 59.511719 L 89.519531 59.511719 L 89.613281 59.365234 L 89.369141 59.365234 L 89.464844 59.214844 L 89.216797 59.214844 L 89.3125 59.064453 L 89.064453 59.064453 L 89.162109 58.912109 L 88.910156 58.912109 L 89.007812 58.759766 L 88.751953 58.759766 L 88.851562 58.603516 L 88.595703 58.603516 L 88.695312 58.447266 L 88.4375 58.447266 L 88.537109 58.289062 L 88.275391 58.289062 L 88.376953 58.128906 L 88.115234 58.128906 L 88.216797 57.96875 L 87.951172 57.96875 L 88.054688 57.804688 L 87.787109 57.804688 L 87.890625 57.640625 L 87.621094 57.640625 L 87.724609 57.476562 L 87.449219 57.476562 L 87.556641 57.308594 L 87.28125 57.308594 L 87.388672 57.140625 L 87.111328 57.140625 L 87.21875 56.970703 L 86.9375 56.970703 L 87.046875 56.798828 L 86.763672 56.798828 L 86.875 56.625 L 86.587891 56.625 L 86.699219 56.451172 L 86.412109 56.451172 L 86.523438 56.275391 L 86.232422 56.275391 L 86.345703 56.097656 L 86.054688 56.097656 L 86.167969 55.917969 L 85.873047 55.917969 L 85.986328 55.738281 L 85.689453 55.738281 L 85.804688 55.556641 L 85.503906 55.556641 L 85.621094 55.373047 L 85.320312 55.373047 L 85.4375 55.1875 L 85.132812 55.1875 L 85.25 55.001953 L 84.943359 55.001953 L 85.0625 54.814453 L 84.751953 54.814453 L 84.873047 54.625 L 84.560547 54.625 L 84.681641 54.433594 L 84.367188 54.433594 L 84.490234 54.240234 L 84.173828 54.240234 L 84.296875 54.046875 L 83.976562 54.046875 L 84.101562 53.851562 L 83.779297 53.851562 L 83.904297 53.654297 L 83.580078 53.654297 L 83.705078 53.457031 L 83.378906 53.457031 L 83.505859 53.257812 L 83.177734 53.257812 L 83.304688 53.056641 L 82.972656 53.056641 L 83.101562 52.853516 L 82.767578 52.853516 L 82.898438 52.648438 L 82.560547 52.648438 L 82.691406 52.443359 L 82.353516 52.443359 L 82.484375 52.236328 L 82.142578 52.236328 L 82.275391 52.027344 L 81.933594 52.027344 L 82.066406 51.818359 L 81.71875 51.818359 L 81.853516 51.605469 L 81.505859 51.605469 L 81.640625 51.392578 L 81.289062 51.392578 L 81.425781 51.177734 L 81.074219 51.177734 L 81.210938 50.962891 L 80.853516 50.962891 L 80.992188 50.744141 L 80.634766 50.744141 L 80.773438 50.525391 L 80.412109 50.525391 L 80.552734 50.304688 L 80.191406 50.304688 L 80.332031 50.082031 L 79.966797 50.082031 L 80.107422 49.859375 L 79.740234 49.859375 L 79.882812 49.634766 L 79.511719 49.634766 L 79.65625 49.408203 L 79.283203 49.408203 L 79.427734 49.179688 L 79.054688 49.179688 L 79.199219 48.951172 L 78.820312 48.951172 L 78.96875 48.71875 L 78.587891 48.71875 L 78.736328 48.486328 L 78.353516 48.486328 L 78.501953 48.253906 L 78.115234 48.253906 L 78.265625 48.017578 L 77.878906 48.017578 L 78.029297 47.78125 L 77.638672 47.78125 L 77.791016 47.542969 L 77.398438 47.542969 L 77.550781 47.302734 L 77.15625 47.302734 L 77.310547 47.060547 L 76.912109 47.060547 L 77.066406 46.818359 L 76.667969 46.818359 L 76.822266 46.574219 L 76.419922 46.574219 L 76.576172 46.328125 L 76.173828 46.328125 L 76.330078 46.082031 L 75.923828 46.082031 L 76.082031 45.832031 L 75.671875 45.832031 L 75.830078 45.582031 L 75.417969 45.582031 L 75.578125 45.330078 L 75.166016 45.330078 L 75.326172 45.078125 L 74.908203 45.078125 L 75.070312 44.822266 L 74.652344 44.822266 L 74.814453 44.566406 L 74.392578 44.566406 L 74.556641 44.308594 L 74.132812 44.308594 L 74.298828 44.048828 L 73.871094 44.048828 L 74.037109 43.789062 L 73.609375 43.789062 L 73.775391 43.527344 L 73.34375 43.527344 L 73.511719 43.263672 L 73.078125 43.263672 L 73.246094 42.998047 L 72.8125 42.998047 L 72.980469 42.732422 L 72.541016 42.732422 L 72.712891 42.462891 L 72.271484 42.462891 L 72.443359 42.193359 L 72 42.193359 L 72.171875 41.921875 L 71.726562 41.921875 L 71.898438 41.650391 L 71.451172 41.650391 L 71.625 41.376953 L 71.173828 41.376953 L 71.349609 41.101562 L 70.896484 41.101562 L 71.072266 40.824219 L 70.617188 40.824219 L 70.794922 40.544922 L 70.335938 40.544922 L 70.513672 40.265625 L 70.052734 40.265625 L 70.232422 39.984375 L 69.769531 39.984375 L 69.949219 39.701172 L 69.484375 39.701172 L 69.666016 39.416016 L 69.197266 39.416016 L 69.378906 39.130859 L 68.910156 39.130859 L 69.091797 38.84375 L 68.619141 38.84375 L 68.802734 38.554688 L 68.328125 38.554688 L 68.513672 38.263672 L 68.035156 38.263672 L 68.220703 37.972656 L 67.742188 37.972656 L 67.927734 37.679688 L 67.445312 37.679688 L 67.632812 37.384766 L 67.146484 37.384766 L 67.335938 37.087891 L 61.207031 37.087891 L 58.144531 42.765625 L 58.126953 42.732422 L 58.003906 42.732422 L 57.859375 42.462891 L 57.732422 42.462891 L 57.589844 42.193359 L 57.462891 42.193359 L 57.318359 41.921875 L 57.189453 41.921875 L 57.044922 41.650391 L 56.916016 41.650391 L 56.771484 41.376953 L 56.642578 41.376953 L 56.496094 41.101562 L 56.365234 41.101562 L 56.21875 40.824219 L 56.089844 40.824219 L 55.941406 40.544922 L 55.808594 40.544922 L 55.660156 40.265625 L 55.527344 40.265625 L 55.378906 39.984375 L 55.246094 39.984375 L 55.095703 39.701172 L 54.964844 39.701172 L 54.8125 39.416016 L 54.677734 39.416016 L 54.525391 39.130859 L 54.390625 39.130859 L 54.238281 38.84375 L 54.103516 38.84375 L 53.949219 38.554688 L 53.814453 38.554688 L 53.660156 38.263672 L 53.521484 38.263672 L 53.367188 37.972656 L 53.230469 37.972656 L 53.074219 37.679688 L 52.935547 37.679688 L 52.779297 37.384766 L 52.640625 37.384766 L 52.482422 37.087891 L 47.765625 37.087891 C 47.749906 37.072464 47.734935 37.055692 47.71875 37.041016 C 47.625624 36.949807 47.537275 36.850277 47.441406 36.763672 C 47.351451 36.675816 47.266337 36.579663 47.173828 36.496094 C 47.083885 36.408249 46.998747 36.312075 46.90625 36.228516 C 46.81567 36.139999 46.72989 36.043153 46.636719 35.958984 C 46.54549 35.869784 46.459092 35.772288 46.365234 35.6875 C 46.274017 35.598311 46.187596 35.500793 46.09375 35.416016 C 46.001249 35.325469 45.913566 35.226631 45.818359 35.140625 C 45.721784 35.046091 45.628821 34.945054 45.529297 34.855469 C 45.350918 34.667015 45.173411 34.477211 44.984375 34.306641 C 44.887712 34.212011 44.794931 34.111156 44.695312 34.021484 C 44.514879 33.830334 44.333939 33.63961 44.142578 33.466797 C 44.046847 33.372852 43.956056 33.270714 43.857422 33.181641 C 43.759044 33.085098 43.665897 32.980069 43.564453 32.888672 C 43.470528 32.796645 43.381873 32.696717 43.285156 32.609375 C 43.188169 32.51409 43.096063 32.410593 42.996094 32.320312 C 42.895447 32.221377 42.799173 32.115028 42.695312 32.021484 C 42.598436 31.926485 42.508052 31.822435 42.408203 31.732422 C 42.310079 31.636038 42.21641 31.532669 42.115234 31.441406 C 40.230424 29.425852 37.749924 28.408203 34.664062 28.408203 z "
       id="path4244"
       mask="url(#mask5044)" /></g><g
     inkscape:label="icon"
     id="layer1"
     inkscape:groupmode="layer"><g
       id="g5028"><path
         inkscape:connector-curvature="0"
         style="font-style:normal;font-variant:normal;font-weight:500;font-stretch:normal;font-size:medium;line-height:125%;font-family:Roboto;-inkscape-font-specification:'Roboto Medium';letter-spacing:-2px;word-spacing:0px;fill:#ffffff;fill-opacity:1;stroke:none;stroke-width:1px;stroke-linecap:butt;stroke-linejoin:miter;stroke-opacity:1"
         id="path4206"
         d="m 44.869043,49.116955 q 0,5.537109 -2.856445,8.723144 -2.834473,3.186035 -7.602539,3.186035 -4.768066,0 -7.646484,-3.186035 -2.878418,-3.208007 -2.878418,-8.723144 l 0,-9.074707 q 0,-5.515137 2.856445,-8.723145 2.856445,-3.208008 7.624512,-3.208008 4.768066,0 7.624511,3.208008 2.878418,3.208008 2.878418,8.723145 l 0,9.074707 z m -5.339355,-9.887696 q 0,-3.208007 -1.362305,-5.009765 -1.362304,-1.823731 -3.801269,-1.823731 -2.460938,0 -3.80127,1.823731 -1.340332,1.801758 -1.340332,5.009765 l 0,10.656739 q 0,3.251953 1.362305,5.075683 1.362304,1.801758 3.823242,1.801758 2.460937,0 3.779297,-1.801758 1.340332,-1.801757 1.340332,-5.075683 l 0,-10.656739 z" /><path
         inkscape:connector-curvature="0"
         id="path4208"
         style="font-style:normal;font-variant:normal;font-weight:500;font-stretch:normal;font-size:medium;line-height:125%;font-family:Roboto;-inkscape-font-specification:'Roboto Medium';letter-spacing:-2px;word-spacing:0px;fill:#ffffff;fill-opacity:1;stroke:none;stroke-width:1px;stroke-linecap:butt;stroke-linejoin:miter;stroke-opacity:1"
         d="m 56.514063,44.94215 4.394531,-8.151855 6.130371,0 -7.470703,11.755371 7.69043,12.019043 -6.064453,0 -4.592285,-8.34961 -4.592286,8.34961 -6.108398,0 7.69043,-12.019043 -7.470704,-11.755371 6.064454,0 4.328613,8.151855 z" /></g></g></svg>