<?xml version="1.0" encoding="UTF-8" standalone="no"?>
<!-- Created with Inkscape (http://www.inkscape.org/) -->

<svg
   xmlns:dc="http://purl.org/dc/elements/1.1/"
   xmlns:cc="http://creativecommons.org/ns#"
   xmlns:rdf="http://www.w3.org/1999/02/22-rdf-syntax-ns#"
   xmlns:svg="http://www.w3.org/2000/svg"
   xmlns="http://www.w3.org/2000/svg"
   xmlns:sodipodi="http://sodipodi.sourceforge.net/DTD/sodipodi-0.dtd"
   xmlns:inkscape="http://www.inkscape.org/namespaces/inkscape"
   width="32"
   height="32"
   id="svg4136"
   version="1.1"
   inkscape:version="0.91pre3 r13670"
   viewBox="0 0 32 32"
   sodipodi:docname="solution.svg">
  <defs
     id="defs4138" />
  <sodipodi:namedview
     id="base"
     pagecolor="#818181"
     bordercolor="#666666"
     borderopacity="1.0"
     inkscape:pageopacity="0"
     inkscape:pageshadow="2"
     inkscape:zoom="22.627417"
     inkscape:cx="11.100816"
     inkscape:cy="14.123856"
     inkscape:current-layer="layer1"
     showgrid="true"
     inkscape:grid-bbox="true"
     inkscape:document-units="px"
     showguides="true"
     inkscape:guide-bbox="true"
     inkscape:window-width="1920"
     inkscape:window-height="1017"
     inkscape:window-x="1912"
     inkscape:window-y="1072"
     inkscape:window-maximized="1">
    <sodipodi:guide
       orientation="0,1"
       position="-1.1090179,4.0019365"
       id="guide4684" />
    <sodipodi:guide
       orientation="0,1"
       position="-1.34375,28"
       id="guide4686" />
    <sodipodi:guide
       orientation="1,0"
       position="4,18.8125"
       id="guide4688" />
    <sodipodi:guide
       orientation="1,0"
       position="28,19.125"
       id="guide4690" />
    <sodipodi:guide
       orientation="0,1"
       position="10.5,10"
       id="guide4700" />
    <sodipodi:guide
       orientation="0,1"
       position="11.8125,22"
       id="guide4702" />
    <sodipodi:guide
       orientation="1,0"
       position="10,19.9375"
       id="guide4704" />
    <sodipodi:guide
       orientation="1,0"
       position="22,19.1875"
       id="guide4706" />
  </sodipodi:namedview>
  <metadata
     id="metadata4141">
    <rdf:RDF>
      <cc:Work
         rdf:about="">
        <dc:format>image/svg+xml</dc:format>
        <dc:type
           rdf:resource="http://purl.org/dc/dcmitype/StillImage" />
        <dc:title></dc:title>
      </cc:Work>
    </rdf:RDF>
  </metadata>
  <g
     id="layer1"
     inkscape:label="Layer 1"
     inkscape:groupmode="layer"
     style="display:inline">
    <path
       style="fill:#ffffff;fill-opacity:1;stroke:none"
       d="m 16,4 0,12 12,0 C 27.9983,12.63227 28.0041,9.2641598 27.998,5.8964844 27.97418,4.7963446 26.917574,3.8936123 25.830078,4 L 16,4 Z m 3.828125,2.875 c 0.341797,0 0.653646,0.065104 0.933594,0.1953125 0.279948,0.1269531 0.520182,0.3235677 0.71875,0.59375 0.198567,0.2669271 0.349609,0.6080729 0.457031,1.0214844 0.107422,0.4134114 0.162109,0.9042969 0.162109,1.4707031 0,0.488281 -0.04883,0.932292 -0.146484,1.335938 -0.09766,0.40039 -0.246745,0.745442 -0.445313,1.035156 -0.198567,0.286458 -0.445963,0.510416 -0.742187,0.669922 -0.292969,0.15625 -0.638021,0.234375 -1.035156,0.234375 -0.341797,0 -0.651693,-0.0625 -0.931641,-0.189453 -0.279948,-0.130209 -0.518229,-0.33073 -0.716797,-0.597657 -0.198567,-0.266927 -0.353515,-0.60612 -0.460937,-1.019531 -0.107422,-0.413411 -0.160156,-0.902344 -0.160156,-1.46875 0,-0.4882812 0.04883,-0.9361979 0.146484,-1.3398438 C 17.708333,8.4127604 17.855469,8.0677083 18.050781,7.78125 18.249349,7.4915365 18.496745,7.2695313 18.792969,7.1132812 19.089193,6.953776 19.434245,6.875 19.828125,6.875 Z m -0.04687,0.7265625 c -0.221354,0 -0.423177,0.052734 -0.605469,0.1601563 -0.179036,0.1074218 -0.333984,0.2695312 -0.460937,0.484375 -0.126953,0.2115885 -0.22461,0.4752604 -0.292969,0.7910156 -0.06836,0.3125 -0.101563,0.6744791 -0.101563,1.0878906 l 0,0.304688 c 0.0033,0.100911 0.0098,0.198567 0.01953,0.292968 L 21.039062,8.7246094 C 20.990234,8.5585938 20.930339,8.40625 20.855469,8.2695312 20.780599,8.1328125 20.690104,8.015625 20.585938,7.9179688 20.481771,7.8170573 20.363932,7.7389323 20.230469,7.6835938 20.097005,7.6282552 19.947266,7.6015625 19.78125,7.6015625 Z m 2.1875,0.8398437 1.089844,0 1.289062,1.8847658 1.263672,-1.8847658 1.048828,0 -1.839844,2.4609378 1.917969,2.441406 -1.126953,0 -1.322266,-1.871094 -1.308593,1.871094 -1.09961,0 1.900391,-2.460938 -1.8125,-2.4414058 z M 21.201172,9.5351562 18.5,11.542969 c 0.04883,0.169271 0.11263,0.325521 0.1875,0.46875 0.07487,0.143229 0.163411,0.266927 0.267578,0.371093 0.107422,0.100912 0.227865,0.179688 0.361328,0.238282 0.136719,0.05534 0.292318,0.08203 0.464844,0.08203 0.221354,0 0.420573,-0.05273 0.599609,-0.160156 0.182292,-0.107422 0.335938,-0.266927 0.462891,-0.478516 0.126953,-0.211588 0.224609,-0.474609 0.292969,-0.787109 0.06836,-0.315755 0.103515,-0.680339 0.103515,-1.09375 0,-0.110677 -0.0039,-0.2187502 -0.01367,-0.3261721 -0.0065,-0.1106771 -0.01562,-0.218099 -0.02539,-0.3222657 z"
       id="path4757"
       inkscape:connector-curvature="0" />
    <path
       style="fill:#ffffff;fill-opacity:1;stroke:none"
       d="M 4,16 C 4.00173,19.36773 3.99591,22.73584 4.00195,26.103516 4.0258299,27.203655 5.0824266,28.106388 6.1699219,28 L 16,28 16,16 4,16 Z m 6.289062,2.476562 0.84961,0 0,1.898438 -0.03906,0.908203 c 0.244141,-0.328776 0.504558,-0.559896 0.78125,-0.693359 0.279948,-0.136719 0.579427,-0.205078 0.898438,-0.205078 0.279948,0 0.524739,0.05859 0.736328,0.175781 0.211589,0.117187 0.389974,0.283203 0.533203,0.498047 0.143229,0.211588 0.250651,0.46875 0.322266,0.771484 0.07161,0.299479 0.107422,0.634766 0.107422,1.00586 0,0.406901 -0.05599,0.771484 -0.169922,1.09375 -0.110677,0.31901 -0.272136,0.591796 -0.480469,0.816406 -0.205078,0.221354 -0.453776,0.391276 -0.75,0.511718 -0.296224,0.117188 -0.630859,0.175782 -1.001953,0.175782 -0.289714,0 -0.585938,-0.02669 -0.888672,-0.08203 -0.302734,-0.05534 -0.602214,-0.145182 -0.898438,-0.265624 l 0,-6.609376 z M 7.796875,18.90625 c 0.3417969,0 0.6536458,0.0651 0.9335938,0.195312 0.2799479,0.126954 0.5201822,0.323568 0.71875,0.59375 0.1985677,0.266928 0.3496093,0.608073 0.4570312,1.021485 0.107422,0.413411 0.162109,0.904297 0.162109,1.470703 0,0.488281 -0.04883,0.932292 -0.146484,1.335938 -0.097656,0.40039 -0.2467448,0.745442 -0.4453125,1.035156 -0.1985677,0.286458 -0.4459635,0.510416 -0.7421875,0.669922 -0.2929688,0.15625 -0.6380208,0.234375 -1.0351562,0.234375 -0.3417969,0 -0.6516928,-0.0625 -0.9316407,-0.189453 C 6.4876302,25.143229 6.249349,24.942708 6.0507812,24.675781 5.8522135,24.408854 5.6972656,24.069661 5.5898438,23.65625 5.4824219,23.242839 5.4296875,22.753906 5.4296875,22.1875 c 0,-0.488281 0.048828,-0.936198 0.1464844,-1.339844 C 5.6770833,20.44401 5.8242188,20.098958 6.0195312,19.8125 6.218099,19.522786 6.4654948,19.300781 6.7617188,19.144531 7.0579427,18.985026 7.4029948,18.90625 7.796875,18.90625 Z M 7.75,19.632812 c -0.2213542,0 -0.4231771,0.05273 -0.6054688,0.160157 -0.1790364,0.107422 -0.3339843,0.269531 -0.4609374,0.484375 -0.1269532,0.211588 -0.2246094,0.47526 -0.2929688,0.791015 -0.068359,0.3125 -0.1015625,0.67448 -0.1015625,1.087891 l 0,0.304688 c 0.00326,0.100911 0.00977,0.198567 0.019531,0.292968 l 2.699219,-1.998047 C 8.9589844,20.589844 8.8990885,20.4375 8.8242188,20.300781 8.749349,20.164062 8.6588542,20.046875 8.5546875,19.949219 8.4505208,19.848307 8.3326823,19.770182 8.1992188,19.714844 8.0657552,19.659505 7.9160156,19.632812 7.75,19.632812 Z m 4.859375,1.494141 c -0.107422,0 -0.217448,0.01693 -0.328125,0.05273 -0.110677,0.03255 -0.227214,0.09049 -0.347656,0.171874 -0.117188,0.07813 -0.241537,0.182943 -0.375,0.316407 -0.130209,0.130208 -0.270183,0.292969 -0.419922,0.488281 l 0,2.378906 c 0.166016,0.0651 0.335286,0.117188 0.507812,0.15625 0.172526,0.03581 0.337891,0.05469 0.494141,0.05469 0.195313,0 0.378906,-0.0319 0.554687,-0.09375 0.179037,-0.06185 0.335287,-0.165365 0.46875,-0.308594 0.136719,-0.146484 0.246094,-0.336589 0.324219,-0.574219 0.08138,-0.240885 0.121094,-0.539713 0.121094,-0.894531 0,-0.257161 -0.01953,-0.492188 -0.05859,-0.707031 -0.03581,-0.214844 -0.0944,-0.39974 -0.175781,-0.552735 -0.08138,-0.152994 -0.185547,-0.272786 -0.3125,-0.357422 C 12.935551,21.169919 12.78516,21.12695 12.609379,21.12695 Z M 9.1699219,21.566406 6.46875,23.574219 c 0.048828,0.169271 0.1126302,0.325521 0.1875,0.46875 0.07487,0.143229 0.1634115,0.266927 0.2675781,0.371093 0.1074219,0.100912 0.2278646,0.179688 0.3613281,0.238282 0.1367188,0.05534 0.2923178,0.08203 0.4648438,0.08203 0.2213542,0 0.4205729,-0.05273 0.5996094,-0.160156 0.1822916,-0.107422 0.3359375,-0.266927 0.4628906,-0.478516 0.1269531,-0.211588 0.2246094,-0.474609 0.2929688,-0.787109 0.068359,-0.315755 0.1035156,-0.680339 0.1035156,-1.09375 0,-0.110677 -0.00391,-0.21875 -0.013672,-0.326172 -0.00651,-0.110677 -0.015625,-0.218099 -0.025391,-0.322266 z"
       id="rect4692"
       inkscape:connector-curvature="0" />
    <path
       inkscape:connector-curvature="0"
       id="path4768"
       d="M 9.25,6 C 9.1115,6 9,6.1115 9,6.25 L 9,9 6.25,9 C 6.1115,9 6,9.1115 6,9.25 l 0,1.5 C 6,10.8885 6.1115,11 6.25,11 L 9,11 9,13.75 C 9,13.8885 9.1115,14 9.25,14 l 1.5,0 C 10.8885,14 11,13.8885 11,13.75 L 11,11 13.75,11 C 13.8885,11 14,10.8885 14,10.75 l 0,-1.5 C 14,9.1115 13.8885,9 13.75,9 L 11,9 11,6.25 C 11,6.1115 10.8885,6 10.75,6 l -1.5,0 z"
       style="display:none;fill:#000000;fill-opacity:1;stroke:none" />
  </g>
  <g
     inkscape:groupmode="layer"
     id="layer2"
     inkscape:label="Icons"
     style="display:inline">
    <text
       xml:space="preserve"
       style="font-style:normal;font-variant:normal;font-weight:normal;font-stretch:normal;font-size:10px;line-height:125%;font-family:Consolas;-inkscape-font-specification:Consolas;letter-spacing:-1px;word-spacing:0px;fill:#ffffff;fill-opacity:1;stroke:none;stroke-width:1px;stroke-linecap:butt;stroke-linejoin:miter;stroke-opacity:1;"
       x="4.9097719"
       y="13.198223"
       id="text4162"
       sodipodi:linespacing="125%"><tspan
         sodipodi:role="line"
         id="tspan4164"
         x="4.9097719"
         y="13.198223">01</tspan></text>
    <text
       sodipodi:linespacing="125%"
       id="text4166"
       y="25.260723"
       x="17.097273"
       style="font-style:normal;font-variant:normal;font-weight:normal;font-stretch:normal;font-size:10px;line-height:125%;font-family:Consolas;-inkscape-font-specification:'Consolas, Normal';text-align:start;letter-spacing:-1px;word-spacing:0px;writing-mode:lr-tb;text-anchor:start;fill:#ffffff;fill-opacity:1;stroke:none;stroke-width:1px;stroke-linecap:butt;stroke-linejoin:miter;stroke-opacity:1;"
       xml:space="preserve"><tspan
         sodipodi:role="line"
         id="tspan4170"
         x="17.097273"
         y="25.260723">FF</tspan></text>
  </g>
</svg>
